<svg xmlns="http://www.w3.org/2000/svg" id="export" class="canvas" preserveAspectRatio="xMidYMid meet" style="position: absolute; margin: 0px;" width="309" height="923"><rect id="background" fill="#fff" pointer-events="all" width="309" height="923"/><g id="origin" transform="translate(14.0419921875, 14.0419921875) scale(1)"><g id="clusters" class="clusters"/><g id="edge-paths" class="edge-paths"><defs><marker id="arrowhead-vee" viewBox="0 0 10 10" refX="9" refY="5" markerUnits="strokeWidth" markerWidth="8" markerHeight="6" orient="auto" style="fill: rgb(0, 0, 0);"><path d="M 0 0 L 10 5 L 0 10 L 4 5 z" style="stroke-width: 1px;"/></marker><marker id="arrowhead-vee-select" viewBox="0 0 10 10" refX="9" refY="5" markerUnits="strokeWidth" markerWidth="8" markerHeight="6" orient="auto" style="fill: rgb(238, 0, 0);"><path d="M 0 0 L 10 5 L 0 10 L 4 5 z" style="stroke-width: 1px;"/></marker></defs><path class="edge-path" d="M52.873046875,88.55781269073486L52.873046875,90.22447935740153C52.873046875,91.89114602406819,52.873046875,95.22447935740153,52.873046875,98.55781269073486C52.873046875,101.89114602406819,52.873046875,105.22447935740153,52.873046875,106.89114602406819L52.873046875,108.55781269073486" id="edge-21" style="stroke: rgb(0, 0, 0); stroke-width: 1px; fill: none; marker-end: url(&quot;#arrowhead-vee&quot;);"/><path class="edge-path" d="M71.1822004784202,165.30781269073486L72.25762800285017,166.97447935740152C73.33305552728014,168.6411460240682,75.48391057614008,171.97447935740152,76.55933810057003,175.30781269073486C77.634765625,178.6411460240682,77.634765625,181.97447935740152,77.634765625,183.6411460240682L77.634765625,185.30781269073486" id="edge-22" style="stroke: rgb(0, 0, 0); stroke-width: 1px; fill: none; marker-end: url(&quot;#arrowhead-vee&quot;);"/><path class="edge-path" d="M34.5638932715798,165.30781269073486L33.48846574714983,166.97447935740152C32.41303822271987,168.6411460240682,30.262183173859935,171.97447935740152,29.186755649429966,177.19355487823486C28.111328125,182.4126303990682,28.111328125,189.51744810740152,28.111328125,196.62226581573486C28.111328125,203.7270835240682,28.111328125,210.83190123240152,30.047550978477503,216.05097675323486C31.983773831955006,221.2700522740682,35.85621953891002,224.60338560740152,37.79244239238752,226.2700522740682L39.728665245865024,227.93671894073486" id="edge-22" style="stroke: rgb(0, 0, 0); stroke-width: 1px; fill: none; marker-end: url(&quot;#arrowhead-vee&quot;);"/><path class="edge-path" d="M77.634765625,207.93671894073486L77.634765625,209.60338560740152C77.634765625,211.2700522740682,77.634765625,214.60338560740152,75.6985427715225,217.93671894073486C73.762319918045,221.2700522740682,69.88987421108999,224.60338560740152,67.95365135761249,226.2700522740682L66.01742850413498,227.93671894073486" id="edge-23" style="stroke: rgb(0, 0, 0); stroke-width: 1px; fill: none; marker-end: url(&quot;#arrowhead-vee&quot;);"/><path class="edge-path" d="M52.873046875,250.56562519073486L52.873046875,252.23229185740152C52.873046875,253.8989585240682,52.873046875,257.23229185740155,52.873046875,260.56562519073486C52.873046875,263.8989585240682,52.873046875,267.23229185740155,52.873046875,268.8989585240682L52.873046875,270.56562519073486" id="edge-24" style="stroke: rgb(0, 0, 0); stroke-width: 1px; fill: none; marker-end: url(&quot;#arrowhead-vee&quot;);"/><path class="edge-path" d="M66.91829961246708,327.31562519073486L68.70437728122256,330.92395853996277C70.49045494997806,334.5322918891907,74.06261028748902,341.7489585876465,75.84868795624452,348.9656252861023C77.634765625,356.1822919845581,77.634765625,363.3989586830139,77.634765625,367.0072920322418L77.634765625,370.6156253814697" id="edge-25" style="stroke: rgb(0, 0, 0); stroke-width: 1px; fill: none; marker-end: url(&quot;#arrowhead-vee&quot;);"/><path class="edge-path" d="M38.827794137532926,327.31562519073486L37.04171646877744,330.92395853996277C35.25563880002195,334.5322918891907,31.683483462510974,341.7489585876465,29.897405793755485,350.8513674736023C28.111328125,359.9537763595581,28.111328125,370.9419274330139,28.111328125,379.9884118239085C28.111328125,389.03489621480304,28.111328125,396.1397139231364,30.746490444239047,403.02317746480304C33.381652763478094,409.9066410064697,38.651977401956195,416.5687503814697,41.287139721195246,419.8998050689697L43.922302040434296,423.2308597564697" id="edge-25" style="stroke: rgb(0, 0, 0); stroke-width: 1px; fill: none; marker-end: url(&quot;#arrowhead-vee&quot;);"/><path class="edge-path" d="M77.634765625,393.2445316314697L77.634765625,394.9111982981364C77.634765625,396.57786496480304,77.634765625,399.9111982981364,74.99960330576094,404.90891965230304C72.3644409865219,409.9066410064697,67.09411634804381,416.5687503814697,64.45895402880475,419.8998050689697L61.823791709565704,423.2308597564697" id="edge-26" style="stroke: rgb(0, 0, 0); stroke-width: 1px; fill: none; marker-end: url(&quot;#arrowhead-vee&quot;);"/><path class="edge-path" d="M52.873046875,445.8597660064697L52.873046875,449.1908206939697C52.873046875,452.5218753814697,52.873046875,459.1839847564697,52.873046875,464.1817061106364C52.873046875,469.17942746480304,52.873046875,472.5127607981364,52.873046875,474.17942746480304L52.873046875,475.8460941314697" id="edge-27" style="stroke: rgb(0, 0, 0); stroke-width: 1px; fill: none; marker-end: url(&quot;#arrowhead-vee&quot;);"/><path class="edge-path" d="M212.5908203125,392.51495536278037L215.63216145833334,394.3032180742286C218.67350260416666,396.0914807856768,224.75618489583334,399.6680062085732,227.79752604166666,403.12293558668813C230.8388671875,406.57786496480304,230.8388671875,409.9111982981364,230.8388671875,411.57786496480304L230.8388671875,413.2445316314697" id="edge-28" style="stroke: rgb(0, 0, 0); stroke-width: 1px; fill: none; marker-end: url(&quot;#arrowhead-vee&quot;);"/><path class="edge-path" d="M176.5869140625,390.32775801630663L171.97200520833334,392.4805536188339C167.35709635416666,394.633349221361,158.12727864583334,398.9389404264154,153.51236979166666,406.30853290394253C148.8974609375,413.6781253814697,148.8974609375,424.1117191314697,148.8974609375,434.5453128814697C148.8974609375,444.9789066314697,148.8974609375,455.4125003814697,148.8974609375,467.02513058980304C148.8974609375,478.6377607981364,148.8974609375,491.42942746480304,148.8974609375,504.2210941314697C148.8974609375,517.0127607981364,148.8974609375,529.8044274648031,141.66552734375,539.9872518541392C134.43359375,550.1700762434754,119.9697265625,557.7440583554809,112.73779296875,561.5310494114838L105.505859375,565.3180404674865" id="edge-28" style="stroke: rgb(0, 0, 0); stroke-width: 1px; fill: none; marker-end: url(&quot;#arrowhead-vee&quot;);"/><path class="edge-path" d="M52.873046875,532.5960941314697L52.873046875,534.2627607981364C52.873046875,535.9294274648031,52.873046875,539.2627607981364,56.73080146129727,544.2604821523031C60.58855604759453,549.2582035064697,68.30406522018906,555.9203128814697,72.16181980648633,559.2513675689697L76.0195743927836,562.5824222564697" id="edge-29" style="stroke: rgb(0, 0, 0); stroke-width: 1px; fill: none; marker-end: url(&quot;#arrowhead-vee&quot;);"/><path class="edge-path" d="M230.8388671875,455.8460941314697L230.8388671875,457.5127607981364C230.8388671875,459.17942746480304,230.8388671875,462.5127607981364,230.8388671875,467.02513058980304C230.8388671875,471.5375003814697,230.8388671875,477.2289066314697,230.8388671875,480.0746097564697L230.8388671875,482.9203128814697" id="edge-31" style="stroke: rgb(0, 0, 0); stroke-width: 1px; fill: none; marker-end: url(&quot;#arrowhead-vee&quot;);"/><path class="edge-path" d="M230.8388671875,525.5218753814697L230.8388671875,528.3675785064697C230.8388671875,531.2132816314697,230.8388671875,536.9046878814697,230.8388671875,541.4170576731364C230.8388671875,545.9294274648031,230.8388671875,549.2627607981364,230.8388671875,550.9294274648031L230.8388671875,552.5960941314697" id="edge-33" style="stroke: rgb(0, 0, 0); stroke-width: 1px; fill: none; marker-end: url(&quot;#arrowhead-vee&quot;);"/><path class="edge-path" d="M89.123046875,585.2113285064697L89.123046875,588.5423831939697C89.123046875,591.8734378814697,89.123046875,598.5355472564697,94.02701822916667,604.1542414835106C98.93098958333333,609.7729357105517,108.73893229166667,614.3482147896335,113.64290364583333,616.6358543291744L118.546875,618.9234938687154" id="edge-34" style="stroke: rgb(0, 0, 0); stroke-width: 1px; fill: none; marker-end: url(&quot;#arrowhead-vee&quot;);"/><path class="edge-path" d="M230.8388671875,595.1976566314697L230.8388671875,596.8643232981364C230.8388671875,598.5309899648031,230.8388671875,601.8643232981364,217.54606119791666,606.4815821962775C204.25325520833334,611.0988410944185,177.66764322916666,617.0000255573673,164.37483723958334,619.9506177888417L151.08203125,622.9012100203161" id="edge-36" style="stroke: rgb(0, 0, 0); stroke-width: 1px; fill: none; marker-end: url(&quot;#arrowhead-vee&quot;);"/><path class="edge-path" d="M134.814453125,637.8265628814697L134.814453125,639.4932295481364C134.814453125,641.1598962148031,134.814453125,644.4932295481364,134.814453125,647.8265628814697C134.814453125,651.1598962148031,134.814453125,654.4932295481364,134.814453125,656.1598962148031L134.814453125,657.8265628814697" id="edge-37" style="stroke: rgb(0, 0, 0); stroke-width: 1px; fill: none; marker-end: url(&quot;#arrowhead-vee&quot;);"/><path class="edge-path" d="M134.814453125,680.4554691314697L134.814453125,682.1221357981364C134.814453125,683.7888024648031,134.814453125,687.1221357981364,134.814453125,690.4554691314697C134.814453125,693.7888024648031,134.814453125,697.1221357981364,134.814453125,698.7888024648031L134.814453125,700.4554691314697" id="edge-38" style="stroke: rgb(0, 0, 0); stroke-width: 1px; fill: none; marker-end: url(&quot;#arrowhead-vee&quot;);"/><path class="edge-path" d="M134.814453125,743.0570316314697L134.814453125,744.7236982981364C134.814453125,746.3903649648031,134.814453125,749.7236982981364,134.814453125,753.0570316314697C134.814453125,756.3903649648031,134.814453125,759.7236982981364,134.814453125,761.3903649648031L134.814453125,763.0570316314697" id="edge-40" style="stroke: rgb(0, 0, 0); stroke-width: 1px; fill: none; marker-end: url(&quot;#arrowhead-vee&quot;);"/><path class="edge-path" d="M150.86328125,781.7814044268084L155.88248697916666,784.098826669252C160.90169270833334,786.4162489116956,170.94010416666666,791.0510933965826,175.95930989583334,795.035182305693C180.978515625,799.0192712148031,180.978515625,802.3526045481364,180.978515625,804.0192712148031L180.978515625,805.6859378814697" id="edge-41" style="stroke: rgb(0, 0, 0); stroke-width: 1px; fill: none; marker-end: url(&quot;#arrowhead-vee&quot;);"/><path class="edge-path" d="M118.765625,781.7814044268084L113.74641927083333,784.098826669252C108.72721354166667,786.4162489116956,98.68880208333333,791.0510933965826,93.66959635416667,795.035182305693C88.650390625,799.0192712148031,88.650390625,802.3526045481364,88.650390625,804.0192712148031L88.650390625,805.6859378814697" id="edge-41" style="stroke: rgb(0, 0, 0); stroke-width: 1px; fill: none; marker-end: url(&quot;#arrowhead-vee&quot;);"/><path class="edge-path" d="M52.873046875,22.62890625L52.873046875,26.237239599227905C52.873046875,29.84557294845581,52.873046875,37.06223964691162,52.873046875,44.27890634536743C52.873046875,51.49557304382324,52.873046875,58.71223974227905,52.873046875,62.32057309150696L52.873046875,65.92890644073486" id="edge-vector_observation" style="stroke: rgb(0, 0, 0); stroke-width: 1px; fill: none; marker-end: url(&quot;#arrowhead-vee&quot;);"/><path class="edge-path" d="M194.5888671875,310.25507831573486L194.5888671875,316.70683614412945C194.5888671875,323.158593972524,194.5888671875,336.06210962931317,194.5888671875,346.1222008069356C194.5888671875,356.1822919845581,194.5888671875,363.3989586830139,194.5888671875,367.0072920322418L194.5888671875,370.6156253814697" id="edge-action_masks" style="stroke: rgb(0, 0, 0); stroke-width: 1px; fill: none; marker-end: url(&quot;#arrowhead-vee&quot;);"/><path class="edge-path" d="M180.978515625,828.3148441314697L180.978515625,831.9231774806976C180.978515625,835.5315108299255,180.978515625,842.7481775283813,180.978515625,849.9648442268372C180.978515625,857.181510925293,180.978515625,864.3981776237488,180.978515625,868.0065109729767L180.978515625,871.6148443222046" id="edge-discrete_actions" style="stroke: rgb(0, 0, 0); stroke-width: 1px; fill: none; marker-end: url(&quot;#arrowhead-vee&quot;);"/><path class="edge-path" d="M88.650390625,828.3148441314697L88.650390625,831.9231774806976C88.650390625,835.5315108299255,88.650390625,842.7481775283813,88.650390625,849.9648442268372C88.650390625,857.181510925293,88.650390625,864.3981776237488,88.650390625,868.0065109729767L88.650390625,871.6148443222046" id="edge-action" style="stroke: rgb(0, 0, 0); stroke-width: 1px; fill: none; marker-end: url(&quot;#arrowhead-vee&quot;);"/></g><g id="edge-labels" class="edge-labels"><g style="opacity: 1;" class="edge-label" id="edge-label-edge-vector_observation" transform="translate(79.00096321105957,44.27890634536743)"><g transform="translate(-21.12791633605957,-6.650000095367432)"><text style="font-family: -apple-system, BlinkMacSystemFont, &quot;Segoe WPC&quot;, &quot;Segoe UI&quot;, &quot;Ubuntu&quot;, &quot;Droid Sans&quot;, sans-serif, &quot;PingFang SC&quot;; font-size: 10px;"><tspan xml:space="preserve" dy="1em" x="1">batch×28</tspan></text></g></g><g style="opacity: 1;" class="edge-label" id="edge-label-edge-action_masks" transform="translate(218.02136611938477,348.9656252861023)"><g transform="translate(-18.432498931884766,-6.650000095367432)"><text style="font-family: -apple-system, BlinkMacSystemFont, &quot;Segoe WPC&quot;, &quot;Segoe UI&quot;, &quot;Ubuntu&quot;, &quot;Droid Sans&quot;, sans-serif, &quot;PingFang SC&quot;; font-size: 10px;"><tspan xml:space="preserve" dy="1em" x="1">batch×9</tspan></text></g></g><g style="opacity: 1;" class="edge-label" id="edge-label-edge-discrete_actions" transform="translate(204.41101455688477,849.9648442268372)"><g transform="translate(-18.432498931884766,-6.650000095367432)"><text style="font-family: -apple-system, BlinkMacSystemFont, &quot;Segoe WPC&quot;, &quot;Segoe UI&quot;, &quot;Ubuntu&quot;, &quot;Droid Sans&quot;, sans-serif, &quot;PingFang SC&quot;; font-size: 10px;"><tspan xml:space="preserve" dy="1em" x="1">batch×9</tspan></text></g></g><g style="opacity: 1;" class="edge-label" id="edge-label-edge-action" transform="translate(112.08288955688477,849.9648442268372)"><g transform="translate(-18.432498931884766,-6.650000095367432)"><text style="font-family: -apple-system, BlinkMacSystemFont, &quot;Segoe WPC&quot;, &quot;Segoe UI&quot;, &quot;Ubuntu&quot;, &quot;Droid Sans&quot;, sans-serif, &quot;PingFang SC&quot;; font-size: 10px;"><tspan xml:space="preserve" dy="1em" x="1">batch×9</tspan></text></g></g></g><g id="nodes" class="nodes"><g id="node-name-Concat_0" class="node graph-node" style="opacity: 1;" transform="translate(52.873046875,77.24335956573486)"><g transform="translate(-23.943359375,-11.314453125)"><g><g class="node-item node-item-type node-item-type-tensor" transform="translate(0,0)"><path d="M5,0h37.885498046875a5,5 0 0 1 5,5v12.630000114440918a5,5 0 0 1 -5,5h-37.885498046875a5,5 0 0 1 -5,-5v-12.630000114440918a5,5 0 0 1 5,-5z" style="stroke: rgb(0, 0, 0); fill: rgb(89, 66, 59); stroke-width: 0px;"/><text x="6" y="15.880000114440918" style="font-family: -apple-system, BlinkMacSystemFont, &quot;Segoe WPC&quot;, &quot;Segoe UI&quot;, &quot;Ubuntu&quot;, &quot;Droid Sans&quot;, sans-serif, &quot;PingFang SC&quot;; font-size: 11px; text-rendering: geometricprecision; fill: rgb(255, 255, 255);">Concat</text><title>Concat_0</title></g><path class="node border" d="M5,0h37.885498046875a5,5 0 0 1 5,5v12.630000114440918a5,5 0 0 1 -5,5h-37.885498046875a5,5 0 0 1 -5,-5v-12.630000114440918a5,5 0 0 1 5,-5z" style="stroke: rgb(51, 51, 51); fill: none; stroke-width: 1px;"/></g></g></g><g id="node-name-Gemm_1" class="node graph-node" style="opacity: 1;" transform="translate(52.873046875,136.93281269073486)"><g transform="translate(-50,-28.375)"><g><g class="node-item node-item-type node-item-type-layer" transform="translate(0,0)"><path d="M5,0h90a5,5 0 0 1 5,5v17.630000114440918a0,0 0 0 1 0,0h-100a0,0 0 0 1 0,0v-17.630000114440918a5,5 0 0 1 5,-5z" style="stroke: rgb(0, 0, 0); fill: rgb(51, 85, 136); stroke-width: 0px;"/><text x="6" y="15.880000114440918" style="font-family: -apple-system, BlinkMacSystemFont, &quot;Segoe WPC&quot;, &quot;Segoe UI&quot;, &quot;Ubuntu&quot;, &quot;Droid Sans&quot;, sans-serif, &quot;PingFang SC&quot;; font-size: 11px; text-rendering: geometricprecision; fill: rgb(255, 255, 255);">Gemm</text><title>Gemm_1</title></g><g class="node-attribute" transform="translate(0,22.630000114440918)"><path d="M0,0h100a0,0 0 0 1 0,0v29.1200008392334a5,5 0 0 1 -5,5h-90a5,5 0 0 1 -5,-5v-29.1200008392334a0,0 0 0 1 0,0z" style="stroke: rgb(0, 0, 0); fill: rgb(255, 255, 255); stroke-width: 0px;"/><text id="initializer-network_body.linear_encoder.seq_layers.0.weight" xml:space="preserve" x="6" y="13.720000267028809" style="font-family: -apple-system, BlinkMacSystemFont, &quot;Segoe WPC&quot;, &quot;Segoe UI&quot;, &quot;Ubuntu&quot;, &quot;Droid Sans&quot;, sans-serif, &quot;PingFang SC&quot;; font-size: 9px; font-weight: normal; text-rendering: geometricprecision;"><title>float32[256,28]</title><tspan style="font-weight: bold;">B</tspan><tspan>〈256×28〉</tspan></text><text id="initializer-network_body.linear_encoder.seq_layers.0.bias" xml:space="preserve" x="6" y="27.780000686645508" style="font-family: -apple-system, BlinkMacSystemFont, &quot;Segoe WPC&quot;, &quot;Segoe UI&quot;, &quot;Ubuntu&quot;, &quot;Droid Sans&quot;, sans-serif, &quot;PingFang SC&quot;; font-size: 9px; font-weight: normal; text-rendering: geometricprecision;"><title>float32[256]</title><tspan style="font-weight: bold;">C</tspan><tspan>〈256〉</tspan></text><line class="node" x1="0" x2="100" y1="0" y2="0" style="stroke: rgb(51, 51, 51); fill: none; stroke-width: 1px;"/></g><path class="node border" d="M5,0h90a5,5 0 0 1 5,5v46.750000953674316a5,5 0 0 1 -5,5h-90a5,5 0 0 1 -5,-5v-46.750000953674316a5,5 0 0 1 5,-5z" style="stroke: rgb(51, 51, 51); fill: none; stroke-width: 1px;"/></g></g></g><g id="node-name-Sigmoid_2" class="node graph-node" style="opacity: 1;" transform="translate(77.634765625,196.62226581573486)"><g transform="translate(-27.0234375,-11.314453125)"><g><g class="node-item node-item-type node-item-type-activation" transform="translate(0,0)"><path d="M5,0h44.04549789428711a5,5 0 0 1 5,5v12.630000114440918a5,5 0 0 1 -5,5h-44.04549789428711a5,5 0 0 1 -5,-5v-12.630000114440918a5,5 0 0 1 5,-5z" style="stroke: rgb(0, 0, 0); fill: rgb(75, 27, 22); stroke-width: 0px;"/><text x="6" y="15.880000114440918" style="font-family: -apple-system, BlinkMacSystemFont, &quot;Segoe WPC&quot;, &quot;Segoe UI&quot;, &quot;Ubuntu&quot;, &quot;Droid Sans&quot;, sans-serif, &quot;PingFang SC&quot;; font-size: 11px; text-rendering: geometricprecision; fill: rgb(255, 255, 255);">Sigmoid</text><title>Sigmoid_2</title></g><path class="node border" d="M5,0h44.04549789428711a5,5 0 0 1 5,5v12.630000114440918a5,5 0 0 1 -5,5h-44.04549789428711a5,5 0 0 1 -5,-5v-12.630000114440918a5,5 0 0 1 5,-5z" style="stroke: rgb(51, 51, 51); fill: none; stroke-width: 1px;"/></g></g></g><g id="node-name-Mul_3" class="node graph-node" style="opacity: 1;" transform="translate(52.873046875,239.25117206573486)"><g transform="translate(-16.3828125,-11.314453125)"><g><g class="node-item node-item-type" transform="translate(0,0)"><path d="M5,0h22.766000747680664a5,5 0 0 1 5,5v12.630000114440918a5,5 0 0 1 -5,5h-22.766000747680664a5,5 0 0 1 -5,-5v-12.630000114440918a5,5 0 0 1 5,-5z" style="stroke: rgb(0, 0, 0); fill: rgb(0, 0, 0); stroke-width: 0px;"/><text x="6" y="15.880000114440918" style="font-family: -apple-system, BlinkMacSystemFont, &quot;Segoe WPC&quot;, &quot;Segoe UI&quot;, &quot;Ubuntu&quot;, &quot;Droid Sans&quot;, sans-serif, &quot;PingFang SC&quot;; font-size: 11px; text-rendering: geometricprecision; fill: rgb(255, 255, 255);">Mul</text><title>Mul_3</title></g><path class="node border" d="M5,0h22.766000747680664a5,5 0 0 1 5,5v12.630000114440918a5,5 0 0 1 -5,5h-22.766000747680664a5,5 0 0 1 -5,-5v-12.630000114440918a5,5 0 0 1 5,-5z" style="stroke: rgb(51, 51, 51); fill: none; stroke-width: 1px;"/></g></g></g><g id="node-name-Gemm_4" class="node graph-node" style="opacity: 1;" transform="translate(52.873046875,298.94062519073486)"><g transform="translate(-50,-28.375)"><g><g class="node-item node-item-type node-item-type-layer" transform="translate(0,0)"><path d="M5,0h90a5,5 0 0 1 5,5v17.630000114440918a0,0 0 0 1 0,0h-100a0,0 0 0 1 0,0v-17.630000114440918a5,5 0 0 1 5,-5z" style="stroke: rgb(0, 0, 0); fill: rgb(51, 85, 136); stroke-width: 0px;"/><text x="6" y="15.880000114440918" style="font-family: -apple-system, BlinkMacSystemFont, &quot;Segoe WPC&quot;, &quot;Segoe UI&quot;, &quot;Ubuntu&quot;, &quot;Droid Sans&quot;, sans-serif, &quot;PingFang SC&quot;; font-size: 11px; text-rendering: geometricprecision; fill: rgb(255, 255, 255);">Gemm</text><title>Gemm_4</title></g><g class="node-attribute" transform="translate(0,22.630000114440918)"><path d="M0,0h100a0,0 0 0 1 0,0v29.1200008392334a5,5 0 0 1 -5,5h-90a5,5 0 0 1 -5,-5v-29.1200008392334a0,0 0 0 1 0,0z" style="stroke: rgb(0, 0, 0); fill: rgb(255, 255, 255); stroke-width: 0px;"/><text id="initializer-network_body.linear_encoder.seq_layers.2.weight" xml:space="preserve" x="6" y="13.720000267028809" style="font-family: -apple-system, BlinkMacSystemFont, &quot;Segoe WPC&quot;, &quot;Segoe UI&quot;, &quot;Ubuntu&quot;, &quot;Droid Sans&quot;, sans-serif, &quot;PingFang SC&quot;; font-size: 9px; font-weight: normal; text-rendering: geometricprecision;"><title>float32[256,256]</title><tspan style="font-weight: bold;">B</tspan><tspan>〈256×256〉</tspan></text><text id="initializer-network_body.linear_encoder.seq_layers.2.bias" xml:space="preserve" x="6" y="27.780000686645508" style="font-family: -apple-system, BlinkMacSystemFont, &quot;Segoe WPC&quot;, &quot;Segoe UI&quot;, &quot;Ubuntu&quot;, &quot;Droid Sans&quot;, sans-serif, &quot;PingFang SC&quot;; font-size: 9px; font-weight: normal; text-rendering: geometricprecision;"><title>float32[256]</title><tspan style="font-weight: bold;">C</tspan><tspan>〈256〉</tspan></text><line class="node" x1="0" x2="100" y1="0" y2="0" style="stroke: rgb(51, 51, 51); fill: none; stroke-width: 1px;"/></g><path class="node border" d="M5,0h90a5,5 0 0 1 5,5v46.750000953674316a5,5 0 0 1 -5,5h-90a5,5 0 0 1 -5,-5v-46.750000953674316a5,5 0 0 1 5,-5z" style="stroke: rgb(51, 51, 51); fill: none; stroke-width: 1px;"/></g></g></g><g id="node-name-Sigmoid_5" class="node graph-node" style="opacity: 1;" transform="translate(77.634765625,381.9300785064697)"><g transform="translate(-27.0234375,-11.314453125)"><g><g class="node-item node-item-type node-item-type-activation" transform="translate(0,0)"><path d="M5,0h44.04549789428711a5,5 0 0 1 5,5v12.630000114440918a5,5 0 0 1 -5,5h-44.04549789428711a5,5 0 0 1 -5,-5v-12.630000114440918a5,5 0 0 1 5,-5z" style="stroke: rgb(0, 0, 0); fill: rgb(75, 27, 22); stroke-width: 0px;"/><text x="6" y="15.880000114440918" style="font-family: -apple-system, BlinkMacSystemFont, &quot;Segoe WPC&quot;, &quot;Segoe UI&quot;, &quot;Ubuntu&quot;, &quot;Droid Sans&quot;, sans-serif, &quot;PingFang SC&quot;; font-size: 11px; text-rendering: geometricprecision; fill: rgb(255, 255, 255);">Sigmoid</text><title>Sigmoid_5</title></g><path class="node border" d="M5,0h44.04549789428711a5,5 0 0 1 5,5v12.630000114440918a5,5 0 0 1 -5,5h-44.04549789428711a5,5 0 0 1 -5,-5v-12.630000114440918a5,5 0 0 1 5,-5z" style="stroke: rgb(51, 51, 51); fill: none; stroke-width: 1px;"/></g></g></g><g id="node-name-Mul_6" class="node graph-node" style="opacity: 1;" transform="translate(52.873046875,434.5453128814697)"><g transform="translate(-16.3828125,-11.314453125)"><g><g class="node-item node-item-type" transform="translate(0,0)"><path d="M5,0h22.766000747680664a5,5 0 0 1 5,5v12.630000114440918a5,5 0 0 1 -5,5h-22.766000747680664a5,5 0 0 1 -5,-5v-12.630000114440918a5,5 0 0 1 5,-5z" style="stroke: rgb(0, 0, 0); fill: rgb(0, 0, 0); stroke-width: 0px;"/><text x="6" y="15.880000114440918" style="font-family: -apple-system, BlinkMacSystemFont, &quot;Segoe WPC&quot;, &quot;Segoe UI&quot;, &quot;Ubuntu&quot;, &quot;Droid Sans&quot;, sans-serif, &quot;PingFang SC&quot;; font-size: 11px; text-rendering: geometricprecision; fill: rgb(255, 255, 255);">Mul</text><title>Mul_6</title></g><path class="node border" d="M5,0h22.766000747680664a5,5 0 0 1 5,5v12.630000114440918a5,5 0 0 1 -5,5h-22.766000747680664a5,5 0 0 1 -5,-5v-12.630000114440918a5,5 0 0 1 5,-5z" style="stroke: rgb(51, 51, 51); fill: none; stroke-width: 1px;"/></g></g></g><g id="node-name-Slice_7" class="node graph-node" style="opacity: 1;" transform="translate(194.5888671875,381.9300785064697)"><g transform="translate(-18.001953125,-11.314453125)"><g><g class="node-item node-item-type node-item-type-tensor" transform="translate(0,0)"><path d="M5,0h26.00458335876465a5,5 0 0 1 5,5v12.630000114440918a5,5 0 0 1 -5,5h-26.00458335876465a5,5 0 0 1 -5,-5v-12.630000114440918a5,5 0 0 1 5,-5z" style="stroke: rgb(0, 0, 0); fill: rgb(89, 66, 59); stroke-width: 0px;"/><text x="6" y="15.880000114440918" style="font-family: -apple-system, BlinkMacSystemFont, &quot;Segoe WPC&quot;, &quot;Segoe UI&quot;, &quot;Ubuntu&quot;, &quot;Droid Sans&quot;, sans-serif, &quot;PingFang SC&quot;; font-size: 11px; text-rendering: geometricprecision; fill: rgb(255, 255, 255);">Slice</text><title>Slice_7</title></g><path class="node border" d="M5,0h26.00458335876465a5,5 0 0 1 5,5v12.630000114440918a5,5 0 0 1 -5,5h-26.00458335876465a5,5 0 0 1 -5,-5v-12.630000114440918a5,5 0 0 1 5,-5z" style="stroke: rgb(51, 51, 51); fill: none; stroke-width: 1px;"/></g></g></g><g id="node-name-Gemm_8" class="node graph-node" style="opacity: 1;" transform="translate(52.873046875,504.2210941314697)"><g transform="translate(-50,-28.375)"><g><g class="node-item node-item-type node-item-type-layer" transform="translate(0,0)"><path d="M5,0h90a5,5 0 0 1 5,5v17.630000114440918a0,0 0 0 1 0,0h-100a0,0 0 0 1 0,0v-17.630000114440918a5,5 0 0 1 5,-5z" style="stroke: rgb(0, 0, 0); fill: rgb(51, 85, 136); stroke-width: 0px;"/><text x="6" y="15.880000114440918" style="font-family: -apple-system, BlinkMacSystemFont, &quot;Segoe WPC&quot;, &quot;Segoe UI&quot;, &quot;Ubuntu&quot;, &quot;Droid Sans&quot;, sans-serif, &quot;PingFang SC&quot;; font-size: 11px; text-rendering: geometricprecision; fill: rgb(255, 255, 255);">Gemm</text><title>Gemm_8</title></g><g class="node-attribute" transform="translate(0,22.630000114440918)"><path d="M0,0h100a0,0 0 0 1 0,0v29.1200008392334a5,5 0 0 1 -5,5h-90a5,5 0 0 1 -5,-5v-29.1200008392334a0,0 0 0 1 0,0z" style="stroke: rgb(0, 0, 0); fill: rgb(255, 255, 255); stroke-width: 0px;"/><text id="initializer-action_model._discrete_distribution.branches.0.weight" xml:space="preserve" x="6" y="13.720000267028809" style="font-family: -apple-system, BlinkMacSystemFont, &quot;Segoe WPC&quot;, &quot;Segoe UI&quot;, &quot;Ubuntu&quot;, &quot;Droid Sans&quot;, sans-serif, &quot;PingFang SC&quot;; font-size: 9px; font-weight: normal; text-rendering: geometricprecision;"><title>float32[9,256]</title><tspan style="font-weight: bold;">B</tspan><tspan>〈9×256〉</tspan></text><text id="initializer-action_model._discrete_distribution.branches.0.bias" xml:space="preserve" x="6" y="27.780000686645508" style="font-family: -apple-system, BlinkMacSystemFont, &quot;Segoe WPC&quot;, &quot;Segoe UI&quot;, &quot;Ubuntu&quot;, &quot;Droid Sans&quot;, sans-serif, &quot;PingFang SC&quot;; font-size: 9px; font-weight: normal; text-rendering: geometricprecision;"><title>float32[9]</title><tspan style="font-weight: bold;">C</tspan><tspan>〈9〉</tspan></text><line class="node" x1="0" x2="100" y1="0" y2="0" style="stroke: rgb(51, 51, 51); fill: none; stroke-width: 1px;"/></g><path class="node border" d="M5,0h90a5,5 0 0 1 5,5v46.750000953674316a5,5 0 0 1 -5,5h-90a5,5 0 0 1 -5,-5v-46.750000953674316a5,5 0 0 1 5,-5z" style="stroke: rgb(51, 51, 51); fill: none; stroke-width: 1px;"/></g></g></g><g id="node-name-Mul_10" class="node graph-node" style="opacity: 1;" transform="translate(230.8388671875,434.5453128814697)"><g transform="translate(-50,-21.30078125)"><g><g class="node-item node-item-type" transform="translate(0,0)"><path d="M5,0h90a5,5 0 0 1 5,5v17.630000114440918a0,0 0 0 1 0,0h-100a0,0 0 0 1 0,0v-17.630000114440918a5,5 0 0 1 5,-5z" style="stroke: rgb(0, 0, 0); fill: rgb(0, 0, 0); stroke-width: 0px;"/><text x="6" y="15.880000114440918" style="font-family: -apple-system, BlinkMacSystemFont, &quot;Segoe WPC&quot;, &quot;Segoe UI&quot;, &quot;Ubuntu&quot;, &quot;Droid Sans&quot;, sans-serif, &quot;PingFang SC&quot;; font-size: 11px; text-rendering: geometricprecision; fill: rgb(255, 255, 255);">Mul</text><title>Mul_10</title></g><g class="node-attribute" transform="translate(0,22.630000114440918)"><path d="M0,0h100a0,0 0 0 1 0,0v14.970000267028809a5,5 0 0 1 -5,5h-90a5,5 0 0 1 -5,-5v-14.970000267028809a0,0 0 0 1 0,0z" style="stroke: rgb(0, 0, 0); fill: rgb(255, 255, 255); stroke-width: 0px;"/><text id="initializer-30" xml:space="preserve" x="6" y="13.720000267028809" style="font-family: -apple-system, BlinkMacSystemFont, &quot;Segoe WPC&quot;, &quot;Segoe UI&quot;, &quot;Ubuntu&quot;, &quot;Droid Sans&quot;, sans-serif, &quot;PingFang SC&quot;; font-size: 9px; font-weight: normal; text-rendering: geometricprecision;"><title>float32</title><tspan>B</tspan><tspan> = -1</tspan></text><line class="node" x1="0" x2="100" y1="0" y2="0" style="stroke: rgb(51, 51, 51); fill: none; stroke-width: 1px;"/></g><path class="node border" d="M5,0h90a5,5 0 0 1 5,5v32.60000038146973a5,5 0 0 1 -5,5h-90a5,5 0 0 1 -5,-5v-32.60000038146973a5,5 0 0 1 5,-5z" style="stroke: rgb(51, 51, 51); fill: none; stroke-width: 1px;"/></g></g></g><g id="node-name-Add_12" class="node graph-node" style="opacity: 1;" transform="translate(230.8388671875,504.2210941314697)"><g transform="translate(-50,-21.30078125)"><g><g class="node-item node-item-type" transform="translate(0,0)"><path d="M5,0h90a5,5 0 0 1 5,5v17.630000114440918a0,0 0 0 1 0,0h-100a0,0 0 0 1 0,0v-17.630000114440918a5,5 0 0 1 5,-5z" style="stroke: rgb(0, 0, 0); fill: rgb(0, 0, 0); stroke-width: 0px;"/><text x="6" y="15.880000114440918" style="font-family: -apple-system, BlinkMacSystemFont, &quot;Segoe WPC&quot;, &quot;Segoe UI&quot;, &quot;Ubuntu&quot;, &quot;Droid Sans&quot;, sans-serif, &quot;PingFang SC&quot;; font-size: 11px; text-rendering: geometricprecision; fill: rgb(255, 255, 255);">Add</text><title>Add_12</title></g><g class="node-attribute" transform="translate(0,22.630000114440918)"><path d="M0,0h100a0,0 0 0 1 0,0v14.970000267028809a5,5 0 0 1 -5,5h-90a5,5 0 0 1 -5,-5v-14.970000267028809a0,0 0 0 1 0,0z" style="stroke: rgb(0, 0, 0); fill: rgb(255, 255, 255); stroke-width: 0px;"/><text id="initializer-32" xml:space="preserve" x="6" y="13.720000267028809" style="font-family: -apple-system, BlinkMacSystemFont, &quot;Segoe WPC&quot;, &quot;Segoe UI&quot;, &quot;Ubuntu&quot;, &quot;Droid Sans&quot;, sans-serif, &quot;PingFang SC&quot;; font-size: 9px; font-weight: normal; text-rendering: geometricprecision;"><title>float32</title><tspan>B</tspan><tspan> = 1</tspan></text><line class="node" x1="0" x2="100" y1="0" y2="0" style="stroke: rgb(51, 51, 51); fill: none; stroke-width: 1px;"/></g><path class="node border" d="M5,0h90a5,5 0 0 1 5,5v32.60000038146973a5,5 0 0 1 -5,5h-90a5,5 0 0 1 -5,-5v-32.60000038146973a5,5 0 0 1 5,-5z" style="stroke: rgb(51, 51, 51); fill: none; stroke-width: 1px;"/></g></g></g><g id="node-name-Mul_13" class="node graph-node" style="opacity: 1;" transform="translate(89.123046875,573.8968753814697)"><g transform="translate(-16.3828125,-11.314453125)"><g><g class="node-item node-item-type" transform="translate(0,0)"><path d="M5,0h22.766000747680664a5,5 0 0 1 5,5v12.630000114440918a5,5 0 0 1 -5,5h-22.766000747680664a5,5 0 0 1 -5,-5v-12.630000114440918a5,5 0 0 1 5,-5z" style="stroke: rgb(0, 0, 0); fill: rgb(0, 0, 0); stroke-width: 0px;"/><text x="6" y="15.880000114440918" style="font-family: -apple-system, BlinkMacSystemFont, &quot;Segoe WPC&quot;, &quot;Segoe UI&quot;, &quot;Ubuntu&quot;, &quot;Droid Sans&quot;, sans-serif, &quot;PingFang SC&quot;; font-size: 11px; text-rendering: geometricprecision; fill: rgb(255, 255, 255);">Mul</text><title>Mul_13</title></g><path class="node border" d="M5,0h22.766000747680664a5,5 0 0 1 5,5v12.630000114440918a5,5 0 0 1 -5,5h-22.766000747680664a5,5 0 0 1 -5,-5v-12.630000114440918a5,5 0 0 1 5,-5z" style="stroke: rgb(51, 51, 51); fill: none; stroke-width: 1px;"/></g></g></g><g id="node-name-Mul_15" class="node graph-node" style="opacity: 1;" transform="translate(230.8388671875,573.8968753814697)"><g transform="translate(-50,-21.30078125)"><g><g class="node-item node-item-type" transform="translate(0,0)"><path d="M5,0h90a5,5 0 0 1 5,5v17.630000114440918a0,0 0 0 1 0,0h-100a0,0 0 0 1 0,0v-17.630000114440918a5,5 0 0 1 5,-5z" style="stroke: rgb(0, 0, 0); fill: rgb(0, 0, 0); stroke-width: 0px;"/><text x="6" y="15.880000114440918" style="font-family: -apple-system, BlinkMacSystemFont, &quot;Segoe WPC&quot;, &quot;Segoe UI&quot;, &quot;Ubuntu&quot;, &quot;Droid Sans&quot;, sans-serif, &quot;PingFang SC&quot;; font-size: 11px; text-rendering: geometricprecision; fill: rgb(255, 255, 255);">Mul</text><title>Mul_15</title></g><g class="node-attribute" transform="translate(0,22.630000114440918)"><path d="M0,0h100a0,0 0 0 1 0,0v14.970000267028809a5,5 0 0 1 -5,5h-90a5,5 0 0 1 -5,-5v-14.970000267028809a0,0 0 0 1 0,0z" style="stroke: rgb(0, 0, 0); fill: rgb(255, 255, 255); stroke-width: 0px;"/><text id="initializer-35" xml:space="preserve" x="6" y="13.720000267028809" style="font-family: -apple-system, BlinkMacSystemFont, &quot;Segoe WPC&quot;, &quot;Segoe UI&quot;, &quot;Ubuntu&quot;, &quot;Droid Sans&quot;, sans-serif, &quot;PingFang SC&quot;; font-size: 9px; font-weight: normal; text-rendering: geometricprecision;"><title>float32</title><tspan>B</tspan><tspan> = 100000000</tspan></text><line class="node" x1="0" x2="100" y1="0" y2="0" style="stroke: rgb(51, 51, 51); fill: none; stroke-width: 1px;"/></g><path class="node border" d="M5,0h90a5,5 0 0 1 5,5v32.60000038146973a5,5 0 0 1 -5,5h-90a5,5 0 0 1 -5,-5v-32.60000038146973a5,5 0 0 1 5,-5z" style="stroke: rgb(51, 51, 51); fill: none; stroke-width: 1px;"/></g></g></g><g id="node-name-Sub_16" class="node graph-node" style="opacity: 1;" transform="translate(134.814453125,626.5121097564697)"><g transform="translate(-16.267578125,-11.314453125)"><g><g class="node-item node-item-type" transform="translate(0,0)"><path d="M5,0h22.535917282104492a5,5 0 0 1 5,5v12.630000114440918a5,5 0 0 1 -5,5h-22.535917282104492a5,5 0 0 1 -5,-5v-12.630000114440918a5,5 0 0 1 5,-5z" style="stroke: rgb(0, 0, 0); fill: rgb(0, 0, 0); stroke-width: 0px;"/><text x="6" y="15.880000114440918" style="font-family: -apple-system, BlinkMacSystemFont, &quot;Segoe WPC&quot;, &quot;Segoe UI&quot;, &quot;Ubuntu&quot;, &quot;Droid Sans&quot;, sans-serif, &quot;PingFang SC&quot;; font-size: 11px; text-rendering: geometricprecision; fill: rgb(255, 255, 255);">Sub</text><title>Sub_16</title></g><path class="node border" d="M5,0h22.535917282104492a5,5 0 0 1 5,5v12.630000114440918a5,5 0 0 1 -5,5h-22.535917282104492a5,5 0 0 1 -5,-5v-12.630000114440918a5,5 0 0 1 5,-5z" style="stroke: rgb(51, 51, 51); fill: none; stroke-width: 1px;"/></g></g></g><g id="node-name-Softmax_17" class="node graph-node" style="opacity: 1;" transform="translate(134.814453125,669.1410160064697)"><g transform="translate(-26.7890625,-11.314453125)"><g><g class="node-item node-item-type node-item-type-activation" transform="translate(0,0)"><path d="M5,0h43.578914642333984a5,5 0 0 1 5,5v12.630000114440918a5,5 0 0 1 -5,5h-43.578914642333984a5,5 0 0 1 -5,-5v-12.630000114440918a5,5 0 0 1 5,-5z" style="stroke: rgb(0, 0, 0); fill: rgb(75, 27, 22); stroke-width: 0px;"/><text x="6" y="15.880000114440918" style="font-family: -apple-system, BlinkMacSystemFont, &quot;Segoe WPC&quot;, &quot;Segoe UI&quot;, &quot;Ubuntu&quot;, &quot;Droid Sans&quot;, sans-serif, &quot;PingFang SC&quot;; font-size: 11px; text-rendering: geometricprecision; fill: rgb(255, 255, 255);">Softmax</text><title>Softmax_17</title></g><path class="node border" d="M5,0h43.578914642333984a5,5 0 0 1 5,5v12.630000114440918a5,5 0 0 1 -5,5h-43.578914642333984a5,5 0 0 1 -5,-5v-12.630000114440918a5,5 0 0 1 5,-5z" style="stroke: rgb(51, 51, 51); fill: none; stroke-width: 1px;"/></g></g></g><g id="node-name-Add_19" class="node graph-node" style="opacity: 1;" transform="translate(134.814453125,721.7562503814697)"><g transform="translate(-50,-21.30078125)"><g><g class="node-item node-item-type" transform="translate(0,0)"><path d="M5,0h90a5,5 0 0 1 5,5v17.630000114440918a0,0 0 0 1 0,0h-100a0,0 0 0 1 0,0v-17.630000114440918a5,5 0 0 1 5,-5z" style="stroke: rgb(0, 0, 0); fill: rgb(0, 0, 0); stroke-width: 0px;"/><text x="6" y="15.880000114440918" style="font-family: -apple-system, BlinkMacSystemFont, &quot;Segoe WPC&quot;, &quot;Segoe UI&quot;, &quot;Ubuntu&quot;, &quot;Droid Sans&quot;, sans-serif, &quot;PingFang SC&quot;; font-size: 11px; text-rendering: geometricprecision; fill: rgb(255, 255, 255);">Add</text><title>Add_19</title></g><g class="node-attribute" transform="translate(0,22.630000114440918)"><path d="M0,0h100a0,0 0 0 1 0,0v14.970000267028809a5,5 0 0 1 -5,5h-90a5,5 0 0 1 -5,-5v-14.970000267028809a0,0 0 0 1 0,0z" style="stroke: rgb(0, 0, 0); fill: rgb(255, 255, 255); stroke-width: 0px;"/><text id="initializer-39" xml:space="preserve" x="6" y="13.720000267028809" style="font-family: -apple-system, BlinkMacSystemFont, &quot;Segoe WPC&quot;, &quot;Segoe UI&quot;, &quot;Ubuntu&quot;, &quot;Droid Sans&quot;, sans-serif, &quot;PingFang SC&quot;; font-size: 9px; font-weight: normal; text-rendering: geometricprecision;"><title>float32</title><tspan>B</tspan><tspan> = 1.00000001…</tspan></text><line class="node" x1="0" x2="100" y1="0" y2="0" style="stroke: rgb(51, 51, 51); fill: none; stroke-width: 1px;"/></g><path class="node border" d="M5,0h90a5,5 0 0 1 5,5v32.60000038146973a5,5 0 0 1 -5,5h-90a5,5 0 0 1 -5,-5v-32.60000038146973a5,5 0 0 1 5,-5z" style="stroke: rgb(51, 51, 51); fill: none; stroke-width: 1px;"/></g></g></g><g id="node-name-Log_20" class="node graph-node" style="opacity: 1;" transform="translate(134.814453125,774.3714847564697)"><g transform="translate(-16.048828125,-11.314453125)"><g><g class="node-item node-item-type" transform="translate(0,0)"><path d="M5,0h22.099584579467773a5,5 0 0 1 5,5v12.630000114440918a5,5 0 0 1 -5,5h-22.099584579467773a5,5 0 0 1 -5,-5v-12.630000114440918a5,5 0 0 1 5,-5z" style="stroke: rgb(0, 0, 0); fill: rgb(0, 0, 0); stroke-width: 0px;"/><text x="6" y="15.880000114440918" style="font-family: -apple-system, BlinkMacSystemFont, &quot;Segoe WPC&quot;, &quot;Segoe UI&quot;, &quot;Ubuntu&quot;, &quot;Droid Sans&quot;, sans-serif, &quot;PingFang SC&quot;; font-size: 11px; text-rendering: geometricprecision; fill: rgb(255, 255, 255);">Log</text><title>Log_20</title></g><path class="node border" d="M5,0h22.099584579467773a5,5 0 0 1 5,5v12.630000114440918a5,5 0 0 1 -5,5h-22.099584579467773a5,5 0 0 1 -5,-5v-12.630000114440918a5,5 0 0 1 5,-5z" style="stroke: rgb(51, 51, 51); fill: none; stroke-width: 1px;"/></g></g></g><g id="node-name-Concat_21" class="node graph-node" style="opacity: 1;" transform="translate(180.978515625,817.0003910064697)"><g transform="translate(-23.943359375,-11.314453125)"><g><g class="node-item node-item-type node-item-type-tensor" transform="translate(0,0)"><path d="M5,0h37.885498046875a5,5 0 0 1 5,5v12.630000114440918a5,5 0 0 1 -5,5h-37.885498046875a5,5 0 0 1 -5,-5v-12.630000114440918a5,5 0 0 1 5,-5z" style="stroke: rgb(0, 0, 0); fill: rgb(89, 66, 59); stroke-width: 0px;"/><text x="6" y="15.880000114440918" style="font-family: -apple-system, BlinkMacSystemFont, &quot;Segoe WPC&quot;, &quot;Segoe UI&quot;, &quot;Ubuntu&quot;, &quot;Droid Sans&quot;, sans-serif, &quot;PingFang SC&quot;; font-size: 11px; text-rendering: geometricprecision; fill: rgb(255, 255, 255);">Concat</text><title>Concat_21</title></g><path class="node border" d="M5,0h37.885498046875a5,5 0 0 1 5,5v12.630000114440918a5,5 0 0 1 -5,5h-37.885498046875a5,5 0 0 1 -5,-5v-12.630000114440918a5,5 0 0 1 5,-5z" style="stroke: rgb(51, 51, 51); fill: none; stroke-width: 1px;"/></g></g></g><g id="node-name-Concat_22" class="node graph-node" style="opacity: 1;" transform="translate(88.650390625,817.0003910064697)"><g transform="translate(-23.943359375,-11.314453125)"><g><g class="node-item node-item-type node-item-type-tensor" transform="translate(0,0)"><path d="M5,0h37.885498046875a5,5 0 0 1 5,5v12.630000114440918a5,5 0 0 1 -5,5h-37.885498046875a5,5 0 0 1 -5,-5v-12.630000114440918a5,5 0 0 1 5,-5z" style="stroke: rgb(0, 0, 0); fill: rgb(89, 66, 59); stroke-width: 0px;"/><text x="6" y="15.880000114440918" style="font-family: -apple-system, BlinkMacSystemFont, &quot;Segoe WPC&quot;, &quot;Segoe UI&quot;, &quot;Ubuntu&quot;, &quot;Droid Sans&quot;, sans-serif, &quot;PingFang SC&quot;; font-size: 11px; text-rendering: geometricprecision; fill: rgb(255, 255, 255);">Concat</text><title>Concat_22</title></g><path class="node border" d="M5,0h37.885498046875a5,5 0 0 1 5,5v12.630000114440918a5,5 0 0 1 -5,5h-37.885498046875a5,5 0 0 1 -5,-5v-12.630000114440918a5,5 0 0 1 5,-5z" style="stroke: rgb(51, 51, 51); fill: none; stroke-width: 1px;"/></g></g></g><g id="input-name-vector_observation" class="node graph-input" style="opacity: 1;" transform="matrix(1, 0, 0, 1, 52.873, 11.3145)"><g transform="translate(-52.873046875,-11.314453125)"><g><g class="node-item graph-item-input" transform="translate(0,0)"><path d="M5,0h95.74642181396484a5,5 0 0 1 5,5v12.630000114440918a5,5 0 0 1 -5,5h-95.74642181396484a5,5 0 0 1 -5,-5v-12.630000114440918a5,5 0 0 1 5,-5z" style="stroke: rgb(0, 0, 0); fill: rgb(238, 238, 238); stroke-width: 0px;"/><text x="6" y="15.880000114440918" style="font-family: -apple-system, BlinkMacSystemFont, &quot;Segoe WPC&quot;, &quot;Segoe UI&quot;, &quot;Ubuntu&quot;, &quot;Droid Sans&quot;, sans-serif, &quot;PingFang SC&quot;; font-size: 11px; text-rendering: geometricprecision;">vector_observation</text><title>float32[batch,28]</title></g><path class="node border" d="M5,0h95.74642181396484a5,5 0 0 1 5,5v12.630000114440918a5,5 0 0 1 -5,5h-95.74642181396484a5,5 0 0 1 -5,-5v-12.630000114440918a5,5 0 0 1 5,-5z" style="stroke: rgb(51, 51, 51); fill: none; stroke-width: 1px;"/></g></g></g><g id="input-name-action_masks" class="node graph-input" style="opacity: 1;" transform="matrix(1, 0, 0, 1, 194.589, 298.941)"><g transform="translate(-39.087890625,-11.314453125)"><g><g class="node-item graph-item-input" transform="translate(0,0)"><path d="M5,0h68.17766571044922a5,5 0 0 1 5,5v12.630000114440918a5,5 0 0 1 -5,5h-68.17766571044922a5,5 0 0 1 -5,-5v-12.630000114440918a5,5 0 0 1 5,-5z" style="stroke: rgb(0, 0, 0); fill: rgb(238, 238, 238); stroke-width: 0px;"/><text x="6" y="15.880000114440918" style="font-family: -apple-system, BlinkMacSystemFont, &quot;Segoe WPC&quot;, &quot;Segoe UI&quot;, &quot;Ubuntu&quot;, &quot;Droid Sans&quot;, sans-serif, &quot;PingFang SC&quot;; font-size: 11px; text-rendering: geometricprecision;">action_masks</text><title>float32[batch,9]</title></g><path class="node border" d="M5,0h68.17766571044922a5,5 0 0 1 5,5v12.630000114440918a5,5 0 0 1 -5,5h-68.17766571044922a5,5 0 0 1 -5,-5v-12.630000114440918a5,5 0 0 1 5,-5z" style="stroke: rgb(51, 51, 51); fill: none; stroke-width: 1px;"/></g></g></g><g class="node" style="opacity: 1;" transform="translate(180.978515625,882.9292974472046)"><g transform="translate(-45.458984375,-11.314453125)"><g><g class="node-item graph-item-output" transform="translate(0,0)"><path d="M5,0h80.91658020019531a5,5 0 0 1 5,5v12.630000114440918a5,5 0 0 1 -5,5h-80.91658020019531a5,5 0 0 1 -5,-5v-12.630000114440918a5,5 0 0 1 5,-5z" style="stroke: rgb(0, 0, 0); fill: rgb(238, 238, 238); stroke-width: 0px;"/><text x="6" y="15.880000114440918" style="font-family: -apple-system, BlinkMacSystemFont, &quot;Segoe WPC&quot;, &quot;Segoe UI&quot;, &quot;Ubuntu&quot;, &quot;Droid Sans&quot;, sans-serif, &quot;PingFang SC&quot;; font-size: 11px; text-rendering: geometricprecision;">discrete_actions</text><title>float32[batch,9]</title></g><path class="node border" d="M5,0h80.91658020019531a5,5 0 0 1 5,5v12.630000114440918a5,5 0 0 1 -5,5h-80.91658020019531a5,5 0 0 1 -5,-5v-12.630000114440918a5,5 0 0 1 5,-5z" style="stroke: rgb(51, 51, 51); fill: none; stroke-width: 1px;"/></g></g></g><g class="node" style="opacity: 1;" transform="translate(88.650390625,882.9292974472046)"><g transform="translate(-21.869140625,-11.314453125)"><g><g class="node-item graph-item-output" transform="translate(0,0)"><path d="M5,0h33.73850059509277a5,5 0 0 1 5,5v12.630000114440918a5,5 0 0 1 -5,5h-33.73850059509277a5,5 0 0 1 -5,-5v-12.630000114440918a5,5 0 0 1 5,-5z" style="stroke: rgb(0, 0, 0); fill: rgb(238, 238, 238); stroke-width: 0px;"/><text x="6" y="15.880000114440918" style="font-family: -apple-system, BlinkMacSystemFont, &quot;Segoe WPC&quot;, &quot;Segoe UI&quot;, &quot;Ubuntu&quot;, &quot;Droid Sans&quot;, sans-serif, &quot;PingFang SC&quot;; font-size: 11px; text-rendering: geometricprecision;">action</text><title>float32[batch,9]</title></g><path class="node border" d="M5,0h33.73850059509277a5,5 0 0 1 5,5v12.630000114440918a5,5 0 0 1 -5,5h-33.73850059509277a5,5 0 0 1 -5,-5v-12.630000114440918a5,5 0 0 1 5,-5z" style="stroke: rgb(51, 51, 51); fill: none; stroke-width: 1px;"/></g></g></g></g></g></svg>